<?xml version="1.0" standalone="no"?>
<!DOCTYPE svg PUBLIC "-//W3C//DTD SVG 20010904//EN"
 "http://www.w3.org/TR/2001/REC-SVG-20010904/DTD/svg10.dtd">
<svg version="1.0" xmlns="http://www.w3.org/2000/svg"
 width="1000.000000pt" height="300.000000pt" viewBox="0 0 1000.000000 300.000000"
 preserveAspectRatio="xMidYMid meet">

<g transform="translate(0.000000,300.000000) scale(0.100000,-0.100000)"
fill="#000000" stroke="none">
<path d="M430 1515 l0 -1185 1185 0 1185 0 0 1185 0 1185 -1185 0 -1185 0 0
-1185z m760 155 l0 -420 205 0 205 0 0 -115 0 -115 -350 0 -350 0 0 535 0 535
145 0 145 0 0 -420z m1210 300 l0 -120 -170 0 -170 0 0 -100 0 -100 160 0 160
0 0 -115 0 -115 -160 0 -160 0 0 -200 0 -200 -145 0 -145 0 0 535 0 535 315 0
315 0 0 -120z"/>
</g>
</svg>
